<svg xmlns="http://www.w3.org/2000/svg" xmlns:xlink="http://www.w3.org/1999/xlink" width="500" zoomAndPan="magnify" viewBox="0 0 375 374.999991" height="500" preserveAspectRatio="xMidYMid meet" version="1.0"><defs><g/></defs><g fill="#ffffff" fill-opacity="1"><g transform="translate(1.253911, 209.624986)"><g><path d="M 41.265625 -31.75 C 46.929688 -29.144531 49.765625 -24.460938 49.765625 -17.703125 C 49.765625 -14.273438 48.863281 -11.15625 47.0625 -8.34375 C 45.269531 -5.539062 42.59375 -3.289062 39.03125 -1.59375 C 35.476562 0.09375 31.019531 0.9375 25.65625 0.9375 C 20.613281 0.9375 16.3125 0.101562 12.75 -1.5625 C 9.1875 -3.226562 6.519531 -5.488281 4.75 -8.34375 C 2.988281 -11.207031 2.1875 -14.429688 2.34375 -18.015625 C 3.226562 -18.378906 4.160156 -18.625 5.140625 -18.75 C 6.128906 -18.882812 7.117188 -18.953125 8.109375 -18.953125 C 10.347656 -18.953125 12.328125 -18.640625 14.046875 -18.015625 C 14.046875 -15.773438 15.160156 -13.953125 17.390625 -12.546875 C 19.628906 -11.148438 22.332031 -10.453125 25.5 -10.453125 C 29.351562 -10.453125 32.148438 -11.242188 33.890625 -12.828125 C 35.628906 -14.410156 36.5 -16.320312 36.5 -18.5625 C 36.5 -20.75 35.71875 -22.632812 34.15625 -24.21875 C 32.601562 -25.800781 29.898438 -26.539062 26.046875 -26.4375 L 18.015625 -26.28125 C 17.546875 -26.644531 17.164062 -27.28125 16.875 -28.1875 C 16.59375 -29.101562 16.453125 -30.132812 16.453125 -31.28125 C 16.453125 -32.320312 16.59375 -33.28125 16.875 -34.15625 C 17.164062 -35.039062 17.546875 -35.613281 18.015625 -35.875 L 25.8125 -35.640625 C 28.207031 -35.585938 30.117188 -35.9375 31.546875 -36.6875 C 32.984375 -37.445312 34.007812 -38.425781 34.625 -39.625 C 35.25 -40.820312 35.5625 -42.046875 35.5625 -43.296875 C 35.5625 -45.734375 34.648438 -47.628906 32.828125 -48.984375 C 31.015625 -50.335938 28.570312 -51.015625 25.5 -51.015625 C 22.488281 -51.015625 20.125 -50.285156 18.40625 -48.828125 C 16.6875 -47.367188 15.828125 -45.65625 15.828125 -43.6875 C 14.429688 -43.113281 12.484375 -42.828125 9.984375 -42.828125 C 9.046875 -42.828125 8.132812 -42.890625 7.25 -43.015625 C 6.363281 -43.148438 5.484375 -43.375 4.609375 -43.6875 C 4.296875 -47.582031 4.984375 -50.90625 6.671875 -53.65625 C 8.359375 -56.414062 10.851562 -58.523438 14.15625 -59.984375 C 17.457031 -61.441406 21.316406 -62.171875 25.734375 -62.171875 C 30.941406 -62.171875 35.171875 -61.398438 38.421875 -59.859375 C 41.671875 -58.328125 44.070312 -56.234375 45.625 -53.578125 C 47.1875 -50.929688 47.96875 -47.863281 47.96875 -44.375 C 47.96875 -41.625 47.351562 -39.128906 46.125 -36.890625 C 44.90625 -34.660156 43.285156 -32.945312 41.265625 -31.75 Z M 41.265625 -31.75 "/></g></g></g><g fill="#ffffff" fill-opacity="1"><g transform="translate(55.065812, 209.624986)"><g><path d="M 45.234375 -56.859375 C 48.929688 -54.628906 51.9375 -51.378906 54.25 -47.109375 C 56.5625 -42.847656 57.71875 -37.335938 57.71875 -30.578125 C 57.71875 -23.296875 56.40625 -17.457031 53.78125 -13.0625 C 51.15625 -8.664062 47.710938 -5.40625 43.453125 -3.28125 C 41.890625 -2.5 40.273438 -1.875 38.609375 -1.40625 C 36.941406 -0.9375 35.015625 -0.582031 32.828125 -0.34375 C 30.648438 -0.113281 28.023438 0 24.953125 0 L 4.609375 0 L 4.609375 -61.15625 L 24.953125 -61.15625 C 28.335938 -61.15625 31.222656 -61.007812 33.609375 -60.71875 C 36.003906 -60.4375 38.125 -59.984375 39.96875 -59.359375 C 41.820312 -58.734375 43.578125 -57.898438 45.234375 -56.859375 Z M 38.84375 -15.515625 C 40.351562 -16.972656 41.523438 -18.910156 42.359375 -21.328125 C 43.191406 -23.742188 43.609375 -26.851562 43.609375 -30.65625 C 43.609375 -34.601562 43.148438 -37.773438 42.234375 -40.171875 C 41.328125 -42.566406 40.144531 -44.460938 38.6875 -45.859375 C 37.226562 -47.210938 35.472656 -48.175781 33.421875 -48.75 C 31.367188 -49.320312 29.144531 -49.609375 26.75 -49.609375 L 18.328125 -49.609375 L 18.328125 -11.625 L 26.75 -11.625 C 29.300781 -11.675781 31.585938 -11.988281 33.609375 -12.5625 C 35.640625 -13.132812 37.382812 -14.117188 38.84375 -15.515625 Z M 38.84375 -15.515625 "/></g></g></g><g fill="#ffffff" fill-opacity="1"><g transform="translate(115.584706, 209.624986)"><g><path d="M 7.71875 0 C 6.257812 0 4.945312 -0.0859375 3.78125 -0.265625 C 2.613281 -0.453125 1.535156 -0.675781 0.546875 -0.9375 L 20.828125 -31.75 L 0.3125 -60.0625 C 2.34375 -60.789062 4.941406 -61.15625 8.109375 -61.15625 C 9.828125 -61.15625 11.4375 -61.078125 12.9375 -60.921875 C 14.445312 -60.765625 15.878906 -60.476562 17.234375 -60.0625 L 29.71875 -42.046875 L 40.875 -60.21875 C 42.125 -60.476562 43.394531 -60.695312 44.6875 -60.875 C 45.988281 -61.0625 47.394531 -61.15625 48.90625 -61.15625 C 50.3125 -61.15625 51.609375 -61.0625 52.796875 -60.875 C 53.992188 -60.695312 55.035156 -60.476562 55.921875 -60.21875 L 37.125 -32.140625 L 59.359375 -1.09375 C 57.222656 -0.363281 54.519531 0 51.25 0 C 49.582031 0 48.019531 -0.0859375 46.5625 -0.265625 C 45.101562 -0.453125 43.703125 -0.726562 42.359375 -1.09375 L 28.15625 -21.765625 L 15.59375 -0.9375 C 14.300781 -0.675781 13.039062 -0.453125 11.8125 -0.265625 C 10.59375 -0.0859375 9.226562 0 7.71875 0 Z M 7.71875 0 "/></g></g></g><g fill="#ffffff" fill-opacity="1"><g transform="translate(175.245729, 209.624986)"><g/></g></g><g fill="#ffffff" fill-opacity="1"><g transform="translate(195.678649, 209.624986)"><g><path d="M 32.140625 1.328125 C 26.109375 1.328125 20.894531 0.03125 16.5 -2.5625 C 12.101562 -5.164062 8.722656 -8.847656 6.359375 -13.609375 C 3.992188 -18.367188 2.8125 -24.023438 2.8125 -30.578125 C 2.8125 -37.234375 3.992188 -42.9375 6.359375 -47.6875 C 8.722656 -52.445312 12.101562 -56.101562 16.5 -58.65625 C 20.894531 -61.207031 26.109375 -62.484375 32.140625 -62.484375 C 38.117188 -62.484375 43.265625 -61.207031 47.578125 -58.65625 C 51.890625 -56.101562 55.21875 -52.445312 57.5625 -47.6875 C 59.90625 -42.9375 61.078125 -37.234375 61.078125 -30.578125 C 61.078125 -24.023438 59.90625 -18.367188 57.5625 -13.609375 C 55.21875 -8.847656 51.890625 -5.164062 47.578125 -2.5625 C 43.265625 0.03125 38.117188 1.328125 32.140625 1.328125 Z M 32.140625 -10.609375 C 36.765625 -10.609375 40.390625 -12.390625 43.015625 -15.953125 C 45.640625 -19.515625 46.953125 -24.390625 46.953125 -30.578125 C 46.953125 -36.867188 45.640625 -41.769531 43.015625 -45.28125 C 40.390625 -48.789062 36.765625 -50.546875 32.140625 -50.546875 C 27.398438 -50.546875 23.691406 -48.789062 21.015625 -45.28125 C 18.335938 -41.769531 17 -36.867188 17 -30.578125 C 17 -24.390625 18.335938 -19.515625 21.015625 -15.953125 C 23.691406 -12.390625 27.398438 -10.609375 32.140625 -10.609375 Z M 32.140625 -10.609375 "/></g></g></g><g fill="#ffffff" fill-opacity="1"><g transform="translate(259.551028, 209.624986)"><g><path d="M 10.609375 0 C 8.316406 0 6.316406 -0.335938 4.609375 -1.015625 L 4.609375 -60.0625 C 5.328125 -60.476562 6.128906 -60.765625 7.015625 -60.921875 C 7.898438 -61.078125 9.304688 -61.15625 11.234375 -61.15625 C 13.054688 -61.15625 14.523438 -61.078125 15.640625 -60.921875 C 16.753906 -60.765625 17.882812 -60.476562 19.03125 -60.0625 L 44.609375 -18.953125 L 44.6875 -18.953125 L 44.6875 -60.140625 C 45.519531 -60.398438 46.429688 -60.632812 47.421875 -60.84375 C 48.410156 -61.050781 49.632812 -61.15625 51.09375 -61.15625 C 52.65625 -61.15625 53.863281 -61.078125 54.71875 -60.921875 C 55.570312 -60.765625 56.390625 -60.503906 57.171875 -60.140625 L 57.171875 -1.09375 C 55.660156 -0.363281 53.453125 0 50.546875 0 C 49.398438 0 48.148438 -0.078125 46.796875 -0.234375 C 45.441406 -0.390625 44.09375 -0.675781 42.75 -1.09375 L 16.921875 -42.28125 L 16.84375 -42.28125 L 16.84375 -1.015625 C 15.132812 -0.335938 13.054688 0 10.609375 0 Z M 10.609375 0 "/></g></g></g><g fill="#ffffff" fill-opacity="1"><g transform="translate(321.317717, 209.624986)"><g><path d="M 48.125 -11.859375 C 48.644531 -11.128906 49.007812 -10.203125 49.21875 -9.078125 C 49.425781 -7.960938 49.53125 -6.859375 49.53125 -5.765625 C 49.53125 -4.628906 49.398438 -3.523438 49.140625 -2.453125 C 48.878906 -1.390625 48.515625 -0.570312 48.046875 0 L 4.609375 0 L 4.609375 -61.15625 L 47.1875 -61.15625 C 47.707031 -60.425781 48.082031 -59.515625 48.3125 -58.421875 C 48.550781 -57.328125 48.671875 -56.207031 48.671875 -55.0625 C 48.671875 -53.875 48.539062 -52.757812 48.28125 -51.71875 C 48.019531 -50.675781 47.65625 -49.867188 47.1875 -49.296875 L 18.5625 -49.296875 L 18.5625 -36.5 L 45.46875 -36.5 C 45.9375 -35.820312 46.285156 -34.960938 46.515625 -33.921875 C 46.753906 -32.890625 46.875 -31.851562 46.875 -30.8125 C 46.875 -28.363281 46.40625 -26.539062 45.46875 -25.34375 L 18.5625 -25.34375 L 18.5625 -11.859375 Z M 48.125 -11.859375 "/></g></g></g></svg>